<svg class="svg-chatime-logo-white" data-name="Layer 1" xmlns="http://www.w3.org/2000/svg" viewBox="0 0 150 30" width="150" height="30">
	<defs>
		<style>.svgfill{fill:#FFF}.cls-2{opacity:0.7;}</style>
	</defs>
	<title>chatime-logo</title>
	<path class="svgfill" d="M36.75,4c-2.82,1-4.93.16-6.41,0a10.73,10.73,0,0,0-2.19,0,8.15,8.15,0,0,0-1.29.19c-3.35.68-5.22,3.36-6.32,6.22,0-.14,0-.28,0-.42C20.75,6.27,19.5.78,14.92.17a10.92,10.92,0,0,0-9,2.61l-.06,0L5.66,3h0C2.1,6,1.72,9.86,3.28,15.13a14.09,14.09,0,0,0,1.5,3.36l0-.16h0A12.76,12.76,0,0,1,9.39,5.25c4.41-3.64,8.28-2,9.6,1.39a11.16,11.16,0,0,1,.59,3.56,8.64,8.64,0,0,1-1,4.06h0c-.3.66-.59,1.33-.85,2-.53,1.23-.87,2.11-1.1,2.8h0l0,.11a.39.39,0,0,0,.24.55.51.51,0,0,0,.55-.24l.11-.27,0-.06a68.16,68.16,0,0,1,2.9-6.62c.16-.29.3-.55.45-.79l0-.08q.17-.27.32-.48h0a3.91,3.91,0,0,1,.42-.49l0,0,0,0,.05-.05a2.36,2.36,0,0,1,1.52-.61h.09c.72-.07,1.43,0,2.57.06a8.15,8.15,0,0,0,1.53-.15,9.16,9.16,0,0,0,1.19-.29h0C32,8.58,34,6.86,36.75,4Z"/>
	<g class="cls-2">
		<path class="svgfill" d="M6.86,24.53a39.9,39.9,0,0,0-1.59-4.11c.46,1.78-.52,3-1.33,4.05s-.34,2.94,1.09,3S7.38,26.22,6.86,24.53Z"/>
		<path class="svgfill" d="M3.28,15.13C1.9,10.47,2,6.93,4.54,4.06,2.05,4.58-.58,6.76.11,11.18a9.35,9.35,0,0,0,1.66,3.69c1,1.34,2.15,2.33,2.77,3.21A13.65,13.65,0,0,1,3.28,15.13Z"/>
		<polygon class="svgfill" points="4.79 18.5 4.79 18.5 4.79 18.5 4.79 18.5"/>
	</g>
	<path class="svgfill" d="M67.53,17.41c-4.14-.42-6.6,3-8.63,4.89A71.45,71.45,0,0,1,66.78,6.37c.87-1.34,0-2.07-.9-2.2a3.16,3.16,0,0,0-3.4,1.5,53.11,53.11,0,0,0-4.79,9.82C54.38,24,53.75,27.77,55.64,28.1c1.61.28,2.34-.56,3.5-1.68,3.43-3.35,5.78-5.86,7.22-5.3s1.32,2.8,1.49,6.08c.1,1.16.13,1.53,1.4,1.39a1.49,1.49,0,0,0,1.47-1.34C71.27,21.85,70.86,17.75,67.53,17.41Z"/>
	<path class="svgfill" d="M109.72,12.6a2.44,2.44,0,0,0,3.24-.89c.79-1.17.88-2.82-.32-3.31a2.65,2.65,0,0,0-3.29.86A2.32,2.32,0,0,0,109.72,12.6Z"/>
	<path class="svgfill" d="M109.7,15c-1.05-1-2-1.12-2.93.18-1.33,1.78-4.2,8.51-4.55,11.14-.19,1.43-.2,2.1.86,2.2.9.08,1.81-.26,2.39-1.8a49.46,49.46,0,0,1,3.77-8.16C110.66,16.34,110.3,15.56,109.7,15Z"/>
	<path class="svgfill" d="M97.45,25.31c-.35.2-1.93.86-2.07-.45-.11-1.06,1.17-4.06,2.48-7.07.29-.62.7-1.43,1.16-2.33,2.26-.41,4.09-.69,4.68-.77,1.15-.15,1.43-.82,1.65-1.61s-.21-.91-1.47-.92c-1,0-2.08,0-3.14.06,1.2-2.22,2.46-4.4,3.26-5.53,1.12-1.59.82-2.31-.56-2.51a3,3,0,0,0-3,1.31,75.5,75.5,0,0,0-4.16,7.14c-1.63.21-3.23.46-4.75.74a2.38,2.38,0,0,0-2.09,2.09c-.56,2.22.93,1.9,2.76,1.45.74-.19,1.52-.37,2.3-.54-1.94,4.3-3,7.29-2.76,9.36.3,3,4,3.77,6.74,1.58,0,0,1-.79.75-1.68C98.83,24.18,98.33,24.82,97.45,25.31Z"/>
	<path class="svgfill" d="M55.38,10.16c.1-.12.18-.23.26-.34a3.24,3.24,0,0,0-.54-4A6.05,6.05,0,0,0,50.89,4h-.48C44.72,4.27,37.24,9.65,33,15.82c-5.51,8.09-2.83,14,4,14.14a24.22,24.22,0,0,0,14.19-4.49c1-.7,1.71-1.11,1.77-2.46,0-.05,0-.1,0-.15h0c0-.08,0-.15,0-.22-.15-1.15-.64-1.37-1.21-1.21a7.77,7.77,0,0,0-2,1h0l-1.08.59c-4.61,2.62-14.53,4.43-13.92-.06.35-2.54,2.35-6.57,7.84-11.28,3-2.38,7.06-4.31,9.27-3.49l0,0,.15.08a3.8,3.8,0,0,1,1.29,1.74C53.66,10.7,54.31,11.42,55.38,10.16Z"/>
	<path class="svgfill" d="M146.85,15a12.84,12.84,0,0,0-10.65,6A8,8,0,0,0,135,25.2c0,.09,0,.18,0,.27s0,.15,0,.22,0,.18.05.27v0c.41,1.63,1.92,2.53,4.19,2.7l.48,0H140a10.39,10.39,0,0,0,6.33-1.8,2.28,2.28,0,0,0,.82-2.24c-.13-.48-.46-.89-1.46-.08l-.58.36h0a5.81,5.81,0,0,1-1,.49,6.55,6.55,0,0,1-4.88.37,1.38,1.38,0,0,1-.9-1.28s0-.1,0-.15h.07a12.33,12.33,0,0,0,9.09-2.88C151.3,18,150.52,14.93,146.85,15Zm-7.63,7c2.62-4.1,6.43-4.55,6.94-4.32C146.9,18.08,145.08,21.24,139.22,22Z"/>
	<path class="svgfill" d="M131.26,16.29c-3-.17-5.28,2.88-6.78,4.36,1.66-4.46-.38-5.43-1.85-5.25-2.33.22-4.9,2-8.24,5.56.66-1.17,1.52-2.65,2-3.56,1-1.77.14-2.28-1.07-2.28a2.26,2.26,0,0,0-2.17,1.15,25.11,25.11,0,0,0-2.8,6.22,20.46,20.46,0,0,0-.76,3h0v.06c-.33,2.09.16,2.66.88,2.78a2.23,2.23,0,0,0,2.08-.87l0,0,.12-.14h0c.64-.77,1.62-2.09,3.62-4.4,2.3-2.49,4.25-4.15,5.31-3.81.61.27-.36,1.79-1.71,7.3-.3,1.12.59,1.47,1.23,1.52s1.31-.21,2.19-1.52a34,34,0,0,1,5.37-6.34c1.78-1.46,2.1-.53,1.58,1.45a30.62,30.62,0,0,1-2,5.1c-.56,1.2.11,1.55.78,1.72s1.81.14,2.6-1.5a24.16,24.16,0,0,0,2-6.34C134.07,18.27,133.32,16.42,131.26,16.29Z"/>
	<path class="svgfill" d="M87.55,26.19a2.28,2.28,0,0,1-.92-1l0-.07-.07-.18c-.37-1.06-.16-2.71-.66-3.11a1.78,1.78,0,0,0-2.11.07c-.37.23-.77.61-1.35,1l-.49.35-.32.21-.21.13-.21.12L81,23.8A11.62,11.62,0,0,1,78,25h0A3,3,0,0,1,77,25c-.49-.12-.51-.6,0-1.54a14.55,14.55,0,0,1,2.8-3.61C81.55,18.39,82.6,18,83.23,18c1.61-.1-.32,2.42,2.09,2.52,1.11,0,1.62-.68,1.87-1.9.38-2.17-.56-3.35-2.53-3.65-2.79-.43-8,1.83-10.48,6.66-1.63,2.86-1.56,5.73.5,6.49,2.22.81,5.84-.07,9-2.27a4.36,4.36,0,0,0,3.41,2.88c1.32.18,2.55-.38,2.55-1.65C89.64,26.08,88.44,26.78,87.55,26.19Z"/>
</svg>
